<svg xmlns="http://www.w3.org/2000/svg" viewBox="0 0 492.85 113.47"><defs><style>.cls-1{font-size:18.14px;font-family:HelveticaNeueLTStd-It, Helvetica Neue LT Std;font-style:italic;letter-spacing:0.02em;}.cls-1,.cls-2{fill:#fff;}</style></defs><title>Recurso 2</title><g id="Capa_2" data-name="Capa 2"><g id="Layer_1" data-name="Layer 1"><text class="cls-1" transform="translate(209.61 96.72)">El espíritu de las grandes obras</text><path class="cls-2" d="M71.56,80.5c11.8-30.19,23.49-49.39,55.63-50.89L100.87,0,0,113.47S59.84,110.49,71.56,80.5Z"/><path class="cls-2" d="M134.38,37.71c-21.07,9.26-22.37,22-21.83,43,.58,22-13.15,32.74-13.15,32.74H201.73Z"/><path class="cls-2" d="M238.49,29.84l-17.85,34.9h7.26l2.67-5.49H247l2.72,5.49H257l-17.86-34.9Zm-4.67,23.59,5-10.55,5,10.55ZM283.25,48a9.84,9.84,0,0,0-2.55-1.83A17,17,0,0,0,277.81,45a24.88,24.88,0,0,0-2.82-.67c-.91-.16-1.69-.32-2.36-.48l-2.77-.67a17.7,17.7,0,0,1-2.63-.81,6,6,0,0,1-2-1.19,2.34,2.34,0,0,1-.77-1.77,2.65,2.65,0,0,1,.65-1.79,5,5,0,0,1,1.62-1.21,8.49,8.49,0,0,1,2.08-.7,10.48,10.48,0,0,1,1.95-.21,12.92,12.92,0,0,1,4.83.91A23.82,23.82,0,0,1,280.41,39l3.72-5.25c-1.08-.76-2.09-1.43-3-2A16.81,16.81,0,0,0,275,29.56a24.22,24.22,0,0,0-3.92-.29,23,23,0,0,0-4.56.48,13.44,13.44,0,0,0-4.3,1.65,9.48,9.48,0,0,0-3.17,3.19,9.6,9.6,0,0,0-1.24,5.09,8.9,8.9,0,0,0,.69,3.65A8.47,8.47,0,0,0,260.36,46a10.88,10.88,0,0,0,2.58,1.86,17.28,17.28,0,0,0,2.91,1.19,28.51,28.51,0,0,0,2.86.72l2.44.45c1.05.19,2.06.4,3,.62a13.7,13.7,0,0,1,2.53.81,4.88,4.88,0,0,1,1.72,1.22,2.62,2.62,0,0,1,.64,1.79,3.56,3.56,0,0,1-.43,1.65,4.26,4.26,0,0,1-1.29,1.48,7.11,7.11,0,0,1-2.1,1.05,9.19,9.19,0,0,1-2.86.4,13.51,13.51,0,0,1-5.85-1.31,37.43,37.43,0,0,1-5.42-3.13l-3.63,5.35c1.09.77,2.14,1.46,3.15,2.1a20.65,20.65,0,0,0,3.25,1.65,21,21,0,0,0,3.8,1.1,25.22,25.22,0,0,0,4.79.4,20.16,20.16,0,0,0,5.4-.67,12.37,12.37,0,0,0,4.2-2,8.76,8.76,0,0,0,2.72-3.31,10.88,10.88,0,0,0,1-4.73,10.14,10.14,0,0,0-.7-4A8.48,8.48,0,0,0,283.25,48Zm31.63-3.6H298V35.72h19V29.8H291.34V64.74H298V50.52h16.85Zm16.33-14.52-17.86,34.9h7.26l2.67-5.49h16.47l2.72,5.49h7.26l-17.86-34.9Zm-4.68,23.59,5-10.55,5,10.55ZM359.37,29.8h-6.68V64.74h25.16V58.82H359.37Zm41.82,0H374.51v5.92h10v29h6.68v-29h10Z"/><path class="cls-2" d="M415.28,29.84h-.67l-17.86,34.9H404l2.67-5.49h16.47l2.72,5.49h7.26Zm-5.35,23.59,5-10.55,5,10.55Z"/><path class="cls-2" d="M456,53a11.1,11.1,0,0,0,5.29-4.25,12.14,12.14,0,0,0,2-6.92,13,13,0,0,0-.88-4.85A11.42,11.42,0,0,0,460,33.16a11.08,11.08,0,0,0-3.81-2.48,13.11,13.11,0,0,0-4.9-.88H435.38V64.74h6.68V53.62h6.61q2,2.87,4,5.63c1.33,1.85,2.7,3.68,4.09,5.49h8Q460.44,58.83,456,53Zm-2.91-5.66a5.39,5.39,0,0,1-1.88.36h-9.18v-12h9.18a5.13,5.13,0,0,1,2.81.67A4.82,4.82,0,0,1,455.67,38a6,6,0,0,1,.76,2,10.23,10.23,0,0,1,.19,1.82,6.25,6.25,0,0,1-.5,2.58,6,6,0,0,1-1.26,1.84A5,5,0,0,1,453.12,47.34Z"/><polygon class="cls-2" points="466.17 29.8 466.17 35.72 476.19 35.72 476.19 64.75 482.88 64.75 482.88 35.72 492.86 35.72 492.86 29.8 466.17 29.8"/></g></g></svg>