<svg xmlns="http://www.w3.org/2000/svg" viewBox="0 0 231.77 192.5"><defs><style>.cls-1{font-size:15.91px;font-family:HelveticaNeueLTStd-It, Helvetica Neue LT Std;font-style:italic;letter-spacing:0.02em;}.cls-1,.cls-2{fill:#fff;}</style></defs><title>Recurso 1</title><g id="Capa_2" data-name="Capa 2"><g id="Layer_1" data-name="Layer 1"><text class="cls-1" transform="translate(0 189.1)">El espíritu de las grandes obras</text><path class="cls-2" d="M87.19,80.5C99,50.31,110.68,31.11,142.82,29.61L116.5,0,15.63,113.47S75.47,110.49,87.19,80.5Z"/><path class="cls-2" d="M150,37.71c-21.08,9.26-22.38,22-21.84,43,.58,22-13.15,32.74-13.15,32.74H217.36Z"/><path class="cls-2" d="M16.34,133.06,1.22,162.62H7.37L9.63,158H23.58l2.31,4.65H32L16.91,133.06Zm-4,20,4.25-8.94,4.2,8.94Zm41.87-4.63a8.39,8.39,0,0,0-2.16-1.56,16.19,16.19,0,0,0-2.45-1,21.35,21.35,0,0,0-2.38-.56c-.77-.14-1.44-.27-2-.41-.75-.19-1.53-.37-2.34-.56a15.82,15.82,0,0,1-2.23-.69,5.31,5.31,0,0,1-1.65-1,2,2,0,0,1-.65-1.5,2.18,2.18,0,0,1,.55-1.51,4.22,4.22,0,0,1,1.37-1,7,7,0,0,1,1.76-.59,8.81,8.81,0,0,1,1.66-.18,10.8,10.8,0,0,1,4.08.77,20.24,20.24,0,0,1,4,2.22L55,136.38c-.92-.65-1.77-1.21-2.57-1.68A14.84,14.84,0,0,0,50,133.53a14.4,14.4,0,0,0-2.7-.71,20.68,20.68,0,0,0-3.32-.24,19.4,19.4,0,0,0-3.86.4,11.25,11.25,0,0,0-3.64,1.4,7.93,7.93,0,0,0-2.69,2.71,8.11,8.11,0,0,0-1.05,4.3,7.19,7.19,0,0,0,2.14,5.36,9.26,9.26,0,0,0,2.19,1.58,14.82,14.82,0,0,0,2.46,1,22.73,22.73,0,0,0,2.43.61l2.06.38c.89.16,1.75.34,2.57.53a12,12,0,0,1,2.14.68,4.25,4.25,0,0,1,1.46,1,2.26,2.26,0,0,1,.54,1.52,3.1,3.1,0,0,1-.36,1.4,3.66,3.66,0,0,1-1.09,1.25,6.31,6.31,0,0,1-1.78.89,7.79,7.79,0,0,1-2.43.34,11.54,11.54,0,0,1-4.95-1.11,31.15,31.15,0,0,1-4.59-2.65l-3.07,4.53c.91.65,1.8,1.24,2.66,1.78a17.72,17.72,0,0,0,2.75,1.39,16.62,16.62,0,0,0,3.22.93,21.25,21.25,0,0,0,4.06.35,17.12,17.12,0,0,0,4.57-.57,10.29,10.29,0,0,0,3.56-1.68,7.33,7.33,0,0,0,2.3-2.81,9.18,9.18,0,0,0,.81-4,8.78,8.78,0,0,0-.58-3.38A7.22,7.22,0,0,0,54.25,148.41Zm26.79-3H66.76V138h16.1v-5H61.1v29.59h5.66V150.57H81Zm13.83-12.3L79.74,162.62h6.15L88.15,158H102.1l2.31,4.65h6.14L95.43,133.06Zm-4,20,4.25-8.94,4.2,8.94Zm27.82-20h-5.66v29.59h21.31v-5H118.72Zm35.42,0h-22.6v5H140v24.58h5.66V138h8.45Z"/><path class="cls-2" d="M166.07,133.06h-.57l-15.12,29.56h6.15l2.26-4.65h14l2.3,4.65h6.15Zm-4.53,20,4.25-8.94L170,153Z"/><path class="cls-2" d="M200.59,152.68a9.4,9.4,0,0,0,4.47-3.6,10.3,10.3,0,0,0,1.68-5.87,11.15,11.15,0,0,0-.74-4.1,9.63,9.63,0,0,0-2.09-3.23,9.24,9.24,0,0,0-3.22-2.11,11.14,11.14,0,0,0-4.15-.74H183.09v29.59h5.66V153.2h5.6q1.69,2.43,3.39,4.77c1.13,1.57,2.28,3.12,3.47,4.65H208Q204.32,157.61,200.59,152.68Zm-2.47-4.8a4.44,4.44,0,0,1-1.59.31h-7.78V138h7.78a4.37,4.37,0,0,1,2.38.57,4.08,4.08,0,0,1,1.37,1.37,5.09,5.09,0,0,1,.64,1.7,8.46,8.46,0,0,1,.16,1.53,5.28,5.28,0,0,1-.42,2.19,5.08,5.08,0,0,1-1.07,1.56A4.19,4.19,0,0,1,198.12,147.88Z"/><polygon class="cls-2" points="209.17 133.03 209.17 138.04 217.66 138.04 217.66 162.62 223.32 162.62 223.32 138.04 231.77 138.04 231.77 133.03 209.17 133.03"/></g></g></svg>